HIERARCHY
ROOT Hips
{
	OFFSET 0.000000 0.000000 0.000000
	CHANNELS 6 Xposition Yposition Zposition Zrotation Yrotation Xrotation 
	JOINT LHipJoint
	{
		OFFSET 0.000000 0.000000 0.000000
		CHANNELS 3 Zrotation Yrotation Xrotation
		JOINT LeftUpLeg
		{
			OFFSET 1.363060 -1.794630 0.839290
			CHANNELS 3 Zrotation Yrotation Xrotation
			JOINT LeftLeg
			{
				OFFSET 2.448110 -6.726130 0.000000
				CHANNELS 3 Zrotation Yrotation Xrotation
				JOINT LeftFoot
				{
					OFFSET 2.562200 -7.039590 0.000000
					CHANNELS 3 Zrotation Yrotation Xrotation
					JOINT LeftToeBase
					{
						OFFSET 0.157640 -0.433110 2.322550
						CHANNELS 3 Zrotation Yrotation Xrotation
						End Site
						{
							OFFSET 0.000000 0.000000 0.000000
						}
					}
				}
			}
		}
	}
	JOINT RHipJoint
	{
		OFFSET 0.000000 0.000000 0.000000
		CHANNELS 3 Zrotation Yrotation Xrotation
		JOINT RightUpLeg
		{
			OFFSET -1.305520 -1.794630 0.839290
			CHANNELS 3 Zrotation Yrotation Xrotation
			JOINT RightLeg
			{
				OFFSET -2.542530 -6.985550 0.000000
				CHANNELS 3 Zrotation Yrotation Xrotation
				JOINT RightFoot
				{
					OFFSET -2.568260 -7.056230 0.000000
					CHANNELS 3 Zrotation Yrotation Xrotation
					JOINT RightToeBase
					{
						OFFSET -0.164730 -0.452590 2.363150
						CHANNELS 3 Zrotation Yrotation Xrotation
						End Site
						{
							OFFSET 0.000000 0.000000 0.000000
						}
					}
				}
			}
		}
	}
	JOINT LowerBack
	{
		OFFSET 0.000000 0.000000 0.000000
		CHANNELS 3 Zrotation Yrotation Xrotation
		JOINT Spine
		{
			OFFSET 0.028270 2.035590 -0.193380
			CHANNELS 3 Zrotation Yrotation Xrotation
			JOINT Spine1
			{
				OFFSET 0.056720 2.048850 -0.042750
				CHANNELS 3 Zrotation Yrotation Xrotation
				JOINT Neck
				{
					OFFSET 0.000000 0.000000 0.000000
					CHANNELS 3 Zrotation Yrotation Xrotation
					JOINT Neck1
					{
						OFFSET -0.054170 1.746240 0.172020
						CHANNELS 3 Zrotation Yrotation Xrotation
						JOINT Head
						{
							OFFSET 0.104070 1.761360 -0.123970
							CHANNELS 3 Zrotation Yrotation Xrotation
							End Site
							{
								OFFSET 0.000000 0.000000 0.000000
							}
						}
					}
				}
				JOINT LeftShoulder
				{
					OFFSET 0.000000 0.000000 0.000000
					CHANNELS 3 Zrotation Yrotation Xrotation
					JOINT LeftArm
					{
						OFFSET 3.362410 1.200890 -0.311210
						CHANNELS 3 Zrotation Yrotation Xrotation
						JOINT LeftForeArm
						{
							OFFSET 4.983000 -0.000000 -0.000000
							CHANNELS 3 Zrotation Yrotation Xrotation
							JOINT LeftHand
							{
								OFFSET 3.483560 -0.000000 -0.000000
								CHANNELS 3 Zrotation Yrotation Xrotation
								JOINT LeftFingerBase
								{
									OFFSET 0.000000 0.000000 0.000000
									CHANNELS 3 Zrotation Yrotation Xrotation
									JOINT LeftHandIndex1
									{
										OFFSET 0.715260 -0.000000 -0.000000
										CHANNELS 3 Zrotation Yrotation Xrotation
										End Site
										{
											OFFSET 0.000000 0.000000 0.000000
										}
									}
								}
								JOINT LThumb
								{
									OFFSET 0.000000 0.000000 0.000000
									CHANNELS 3 Zrotation Yrotation Xrotation
									End Site
									{
										OFFSET 0.000000 0.000000 0.000000
									}
								}
							}
						}
					}
				}
				JOINT RightShoulder
				{
					OFFSET 0.000000 0.000000 0.000000
					CHANNELS 3 Zrotation Yrotation Xrotation
					JOINT RightArm
					{
						OFFSET -3.136600 1.374050 -0.404650
						CHANNELS 3 Zrotation Yrotation Xrotation
						JOINT RightForeArm
						{
							OFFSET -5.241900 -0.000000 -0.000000
							CHANNELS 3 Zrotation Yrotation Xrotation
							JOINT RightHand
							{
								OFFSET -3.444170 -0.000000 -0.000000
								CHANNELS 3 Zrotation Yrotation Xrotation
								JOINT RightFingerBase
								{
									OFFSET 0.000000 0.000000 0.000000
									CHANNELS 3 Zrotation Yrotation Xrotation
									JOINT RightHandIndex1
									{
										OFFSET -0.622530 -0.000000 -0.000000
										CHANNELS 3 Zrotation Yrotation Xrotation
										End Site
										{
											OFFSET 0.000000 0.000000 0.000000
										}
									}
								}
								JOINT RThumb
								{
									OFFSET 0.000000 0.000000 0.000000
									CHANNELS 3 Zrotation Yrotation Xrotation
									End Site
									{
										OFFSET 0.000000 0.000000 0.000000
									}
								}
							}
						}
					}
				}
			}
		}
	}
}
MOTION
Frames: 4
Frame Time: 0.008333
0.587279 17.033900 27.148200 -174.668932 -87.842605 -174.856972 -2.199348 23.130261 -0.632880 -12.053884 1.482370 -15.010305 6.825526 9.024071 42.428142 27.044560 -5.408660 -6.788140 -8.494525 5.989774 -15.813976 9.812780 -24.925435 -14.809677 32.428325 13.190513 -23.479239 -17.362583 -2.261721 61.680032 -32.343575 14.896221 -4.580828 10.541706 -9.963013 -13.975815 2.595122 -1.520540 25.336399 -6.218335 -3.817532 10.323327 0.442402 1.742166 -31.831616 0.589410 -1.142950 -15.191974 9.450877 -3.093938 6.732842 -1.598811 -6.615248 -9.547984 13.582477 34.578040 1.696928 -80.647558 -10.257757 51.447285 -174.267453 -75.644897 -179.623346 9.225469 -31.915216 5.605259 1.020415 8.130482 0.000000 0.000000 0.000000 0.000000 0.000000 0.000000 0.000000 -11.384263 -34.877848 4.548075 67.013436 -1.556899 58.755066 -163.246042 70.151808 -167.390755 -12.237215 15.889701 12.534985 2.438440 -10.508325 -0.000001 0.000000 0.000000 0.000000 0.000000 0.000000 0.000000 
0.357453 17.108600 27.136950 -174.753305 -86.710515 -174.731006 -1.999945 23.078554 -0.310045 -11.870372 2.033966 -14.142833 6.425016 9.107028 41.379502 26.962613 -5.770415 -4.686650 -8.765405 6.403322 -16.211601 9.745426 -24.965225 -14.784076 33.145193 12.813013 -22.965041 -16.026644 -2.302911 58.437453 -31.773483 14.817261 -4.932347 10.440439 -9.471549 -13.930749 2.614089 -1.501770 24.834575 -6.370508 -3.765584 10.537264 0.448960 1.847699 -31.899828 0.575921 -0.980827 -15.309180 9.506923 -2.976484 6.858585 -1.575517 -6.619174 -9.468515 13.774553 34.652039 1.887988 -80.338769 -10.143365 51.902548 -174.128635 -74.917850 -179.824435 9.192267 -31.912536 5.556152 1.020839 8.073799 0.000000 0.000000 0.000000 0.000000 0.000000 0.000000 0.000000 -11.551729 -35.094982 4.684190 66.310835 -1.943375 59.730357 -162.495768 69.862738 -167.007527 -12.351686 16.053422 12.786343 2.641443 -10.493530 0.000000 0.000000 0.000000 0.000000 0.000000 0.000000 0.000000 
0.129665 17.181950 27.127950 -174.815639 -85.709058 -174.591388 -1.812887 23.050082 -0.042012 -11.746265 2.435991 -13.433968 6.098999 9.129286 40.606890 26.859612 -6.244156 -2.310467 -9.111883 6.910054 -16.744882 9.665344 -24.944390 -14.724418 33.709747 12.357344 -22.475709 -14.557901 -2.327200 55.130276 -31.274194 14.994352 -5.155561 10.410622 -9.083590 -13.928661 2.732035 -1.524403 24.357443 -6.481462 -3.753053 10.628731 0.413338 1.901931 -31.894796 0.559060 -0.859159 -15.406961 9.537906 -2.890396 6.958773 -1.560296 -6.616490 -9.412358 13.953368 34.666011 2.067693 -80.077383 -9.988621 52.378360 -174.091694 -74.297152 179.972586 9.118887 -31.936684 5.462675 0.998678 8.013368 0.000000 0.000000 0.000000 0.000000 0.000000 0.000000 0.000000 -11.753689 -35.257712 4.842597 65.666584 -2.296832 60.620863 -161.865153 69.632050 -166.550917 -12.455069 16.385255 13.072763 2.885626 -10.474466 0.000000 0.000000 0.000000 0.000000 0.000000 0.000000 0.000000 
-0.096618 17.250950 27.120150 -174.852132 -84.892753 -174.448740 -1.676277 23.041624 0.216843 -11.607914 2.616834 -12.995760 5.843367 9.123800 40.220795 26.726221 -6.772255 0.273032 -9.501002 7.515322 -17.315051 9.566554 -24.889357 -14.668841 34.151613 11.786203 -22.003428 -12.964955 -2.365958 51.810617 -30.631087 15.330964 -5.118725 10.485241 -8.882280 -13.844572 2.891245 -1.567192 23.899523 -6.406541 -3.747348 10.583431 0.303728 1.839288 -31.777363 0.547502 -0.817876 -15.477546 9.508592 -2.860910 7.016004 -1.561559 -6.588038 -9.398504 14.095943 34.646554 2.213083 -79.844074 -9.816276 52.900472 -174.147392 -73.810441 179.868007 9.137626 -32.079805 5.485803 0.953080 7.946645 0.000000 0.000000 0.000000 0.000000 0.000000 0.000000 0.000000 -12.019258 -35.333679 5.093147 65.133609 -2.679666 61.353502 -161.264282 69.352363 -166.168492 -12.517638 16.609944 13.277946 3.069105 -10.446710 -0.000000 0.000000 0.000000 0.000000 0.000000 0.000000 0.000000 
